<svg width="800" height="800" viewBox="0 -0.5 25 25" fill="none" xmlns="http://www.w3.org/2000/svg"><path clip-rule="evenodd" d="M15.5 5h-6a4 4 0 0 0-4 4v6a4 4 0 0 0 4 4h6a4 4 0 0 0 4-4V9a4 4 0 0 0-4-4Z" stroke="#000" stroke-width="1.5" stroke-linecap="round" stroke-linejoin="round"/><path clip-rule="evenodd" d="M12.5 15a3 3 0 1 1 0-6 3 3 0 0 1 0 6Z" stroke="#000" stroke-width="1.5" stroke-linecap="round" stroke-linejoin="round"/><rect x="15.5" y="9" width="2" height="2" rx="1" transform="rotate(-90 15.5 9)" fill="#000"/><rect x="16" y="8.5" width="1" height="1" rx=".5" transform="rotate(-90 16 8.5)" stroke="#000" stroke-linecap="round"/></svg>